<?xml version="1.0" standalone="no"?>
<!DOCTYPE svg PUBLIC "-//W3C//DTD SVG 20010904//EN"
 "http://www.w3.org/TR/2001/REC-SVG-20010904/DTD/svg10.dtd">
<svg version="1.0" xmlns="http://www.w3.org/2000/svg"
 width="512.000000pt" height="512.000000pt" viewBox="0 0 512.000000 512.000000"
 preserveAspectRatio="xMidYMid meet">
<metadata>
Created by potrace 1.14, written by Peter Selinger 2001-2017
</metadata>
<g transform="translate(0.000000,512.000000) scale(0.100000,-0.100000)"
fill="#000000" stroke="none">
<path d="M2369 4996 c-2 -2 -33 -7 -69 -10 -36 -3 -76 -8 -90 -10 -14 -3 -41
-7 -61 -10 -226 -34 -553 -151 -771 -277 -67 -38 -235 -148 -266 -173 -7 -6
-18 -15 -25 -21 -7 -5 -35 -28 -62 -50 -65 -51 -273 -259 -310 -310 -17 -22
-33 -42 -36 -45 -3 -3 -30 -39 -61 -80 -190 -260 -328 -565 -398 -880 -29
-127 -27 -118 -35 -185 -4 -33 -9 -69 -11 -80 -11 -53 -18 -274 -10 -283 2 -2
0 -16 -4 -32 -4 -16 -6 -31 -4 -33 3 -2 7 -58 9 -123 2 -66 6 -132 9 -149 2
-16 10 -64 16 -105 16 -106 16 -103 50 -230 17 -63 31 -121 32 -127 1 -7 4
-13 8 -13 3 0 6 -8 7 -18 6 -78 211 -484 304 -603 16 -20 29 -41 29 -47 0 -6
3 -12 8 -14 4 -2 34 -37 66 -78 141 -177 379 -388 585 -519 198 -126 542 -275
673 -291 4 -1 22 -6 40 -11 18 -6 47 -12 63 -15 17 -3 37 -7 45 -10 8 -3 33
-8 55 -10 22 -3 46 -7 54 -10 33 -11 171 -18 346 -19 239 0 336 10 515 51 58
14 115 27 128 30 137 29 487 180 594 255 14 11 29 19 32 19 10 0 180 122 256
183 116 95 274 256 373 382 81 103 216 315 231 363 4 12 11 22 15 22 4 0 13
17 21 38 7 20 28 70 47 110 18 39 33 78 33 85 0 7 4 17 8 22 5 6 15 30 22 55
7 25 16 50 19 55 3 6 6 15 7 20 1 6 13 53 27 106 14 52 28 115 32 139 4 25 8
47 10 50 2 3 6 33 10 65 4 33 9 74 12 90 16 99 15 494 -2 615 -3 19 -7 53 -10
75 -3 22 -10 60 -15 85 -5 25 -12 56 -14 70 -27 143 -95 342 -173 507 -20 43
-37 80 -38 83 0 3 -8 16 -16 30 -9 14 -29 48 -44 75 -30 53 -96 157 -105 165
-3 3 -14 18 -23 33 -10 16 -24 36 -32 45 -136 171 -298 336 -435 442 -25 19
-47 37 -50 40 -3 3 -12 10 -21 15 -9 6 -51 34 -94 63 -43 28 -81 52 -86 52 -4
0 -14 6 -21 13 -13 13 -280 147 -293 147 -4 0 -21 6 -38 14 -73 32 -276 94
-357 110 -14 3 -52 10 -85 16 -65 13 -90 17 -145 25 -43 6 -476 15 -481 11z"/>
</g>
</svg>
